<svg xmlns="http://www.w3.org/2000/svg" viewBox="0 0 800 800" fill="black">
  <!-- Stack of poker chips -->
  <g transform="translate(200, 200)">
    <!-- Bottom chip -->
    <ellipse cx="150" cy="250" rx="140" ry="40" fill="black"/>
    <rect x="10" y="200" width="280" height="50" fill="black"/>
    <ellipse cx="150" cy="200" rx="140" ry="40" fill="black"/>
    <!-- White stripes on chip -->
    <rect x="10" y="220" width="30" height="10" fill="white"/>
    <rect x="60" y="220" width="30" height="10" fill="white"/>
    <rect x="110" y="220" width="30" height="10" fill="white"/>
    <rect x="160" y="220" width="30" height="10" fill="white"/>
    <rect x="210" y="220" width="30" height="10" fill="white"/>
    <rect x="260" y="220" width="30" height="10" fill="white"/>
    
    <!-- Middle chip -->
    <ellipse cx="150" cy="150" rx="140" ry="40" fill="black"/>
    <rect x="10" y="100" width="280" height="50" fill="black"/>
    <ellipse cx="150" cy="100" rx="140" ry="40" fill="black"/>
    <!-- White stripes on chip -->
    <rect x="10" y="120" width="30" height="10" fill="white"/>
    <rect x="60" y="120" width="30" height="10" fill="white"/>
    <rect x="110" y="120" width="30" height="10" fill="white"/>
    <rect x="160" y="120" width="30" height="10" fill="white"/>
    <rect x="210" y="120" width="30" height="10" fill="white"/>
    <rect x="260" y="120" width="30" height="10" fill="white"/>
    
    <!-- Top chip -->
    <ellipse cx="150" cy="50" rx="140" ry="40" fill="black"/>
    <rect x="10" y="0" width="280" height="50" fill="black"/>
    <ellipse cx="150" cy="0" rx="140" ry="40" fill="black"/>
    <!-- White stripes on chip -->
    <rect x="10" y="20" width="30" height="10" fill="white"/>
    <rect x="60" y="20" width="30" height="10" fill="white"/>
    <rect x="110" y="20" width="30" height="10" fill="white"/>
    <rect x="160" y="20" width="30" height="10" fill="white"/>
    <rect x="210" y="20" width="30" height="10" fill="white"/>
    <rect x="260" y="20" width="30" height="10" fill="white"/>
  </g>
  
  <!-- Stack of money bills -->
  <g transform="translate(380, 280)">
    <!-- Bottom bills -->
    <rect x="20" y="140" width="200" height="100" rx="5" fill="black"/>
    <rect x="15" y="135" width="200" height="100" rx="5" fill="black"/>
    <rect x="10" y="130" width="200" height="100" rx="5" fill="black"/>
    <rect x="5" y="125" width="200" height="100" rx="5" fill="black"/>
    
    <!-- Top bill with dollar sign -->
    <rect x="0" y="120" width="200" height="100" rx="5" fill="black"/>
    <circle cx="100" cy="170" r="35" fill="white"/>
    <text x="100" y="185" font-family="Arial" font-size="48" font-weight="bold" text-anchor="middle" fill="black">$</text>
  </g>
  
  <!-- "For The Win" text -->
  <text x="400" y="650" font-family="Georgia, serif" font-size="120" font-weight="bold" text-anchor="middle" fill="black">For The Win</text>
</svg>